<?xml version="1.0" encoding="UTF-8"?>
<svg width="60px" height="31px" viewBox="0 0 60 31" version="1.1" xmlns="http://www.w3.org/2000/svg" xmlns:xlink="http://www.w3.org/1999/xlink">
    <title>Fill 1</title>
    <g id="modul:-header-&amp;-navi" stroke="none" stroke-width="1" fill="none" fill-rule="evenodd">
        <g id="navi-main-sub" transform="translate(-50.000000, -15.000000)" fill="#FFFFFF">
            <path d="M85.9261524,22.0916736 C82.4096896,26.0329464 76.7314205,31.3474948 68.0526811,32.0102943 L60.985889,32.0102943 C66.5714958,30.210733 70.4741298,26.4573624 73.1048918,23.5088865 L73.4670743,23.0980256 C75.3871119,20.9100396 79.3814675,16.3559811 86.309031,16.3559811 C87.9680151,16.3559811 89.429445,16.7934848 90.6735654,17.469372 C88.6984948,18.9370661 87.2742239,20.5566712 86.3118532,21.6537024 L85.9261524,22.0916736 L85.9261524,22.0916736 Z M110,32.0102943 L74.0456256,32.0102943 C80.2107244,30.1004223 84.5018815,25.9773236 87.3828786,22.7497988 L87.775635,22.304349 C89.8555974,19.9326675 94.1839135,15 101.693321,15 C102.313264,15 102.903104,15.0205664 103.470367,15.0537531 C100.676858,16.1722856 98.7027281,18.8861175 98.7027281,22.0626936 C98.7027281,26.2376757 102.107714,29.6203835 106.309031,29.6203835 C107.649577,29.6203835 108.905927,29.2735589 110,28.6687194 L110,32.0102943 Z M71.6472248,22.8516961 C68.4007526,26.4900817 63.1594544,31.3965738 55.1481656,32.0102943 L50,32.0102943 C54.9901223,30.3303922 58.4920038,26.9570328 60.8650047,24.2964867 L61.1956726,23.9211496 C62.94873,21.9224681 66.5973659,17.7624434 72.9223895,17.7624434 C73.9317968,17.7624434 75.0108184,18.0709396 76.0531515,18.5654684 C74.219191,19.9261236 72.8969897,21.4302764 72.0042333,22.4478465 L71.6472248,22.8516961 L71.6472248,22.8516961 Z M106.883349,45.5285049 L106.883349,44.389406 L106.855597,44.389406 C106.60301,44.833921 106.28269,45.1592443 105.891345,45.3691152 C105.500941,45.5771164 105.0381,45.6818182 104.507056,45.6818182 C104.033396,45.6818182 103.635936,45.6182493 103.318909,45.4929811 C103.003293,45.3691152 102.747413,45.1896265 102.55174,44.9596566 C102.356068,44.7273496 102.219191,44.4520401 102.140169,44.1341955 C102.061618,43.8144812 102.019285,43.460178 102.019285,43.0717532 L102.019285,38.3522286 L103.207902,38.3522286 L103.207902,43.211044 C103.207902,43.6550915 103.339605,44.0056554 103.599247,44.2655401 C103.85936,44.5249574 104.21825,44.6539649 104.675447,44.6539649 C105.0381,44.6539649 105.353246,44.5983421 105.618062,44.4866291 C105.883819,44.3763183 106.103481,44.2187983 106.28269,44.0154712 C106.458137,43.8121442 106.591251,43.5737607 106.680151,43.3007883 C106.768109,43.0273485 106.811383,42.7277332 106.811383,42.4038122 L106.811383,38.3522286 L108,38.3522286 L108,45.5285049 L106.883349,45.5285049 Z M98.0677328,38.352696 L98.0677328,39.86386 L98.0950141,39.86386 C98.3828786,39.2800543 98.7380056,38.8504967 99.1561618,38.573785 C99.5766698,38.2952035 100.107714,38.1666634 100.749294,38.1858276 L100.749294,39.433835 C100.275165,39.433835 99.869238,39.4983388 99.5352775,39.6278137 C99.1999059,39.757756 98.9299153,39.9475279 98.724365,40.1985317 C98.5188147,40.4462635 98.3711195,40.7510204 98.2765757,41.1067258 C98.1839135,41.4633662 98.1378175,41.8723574 98.1378175,42.3351017 L98.1378175,45.5285049 L96.9501411,45.5285049 L96.9501411,38.352696 L98.0677328,38.352696 Z M90.3236124,35.6154932 L90.3236124,39.4062573 L90.3504233,39.4062573 C90.443556,39.1837661 90.5729069,38.9958639 90.7422389,38.8434854 C90.9087488,38.6920418 91.0983067,38.5653714 91.3071496,38.4686158 C91.5183443,38.3713927 91.7351834,38.3003451 91.9642521,38.2540707 C92.1914393,38.2077963 92.4125118,38.1858276 92.6279398,38.1858276 C93.10254,38.1858276 93.4990593,38.2489291 93.8151458,38.3788714 C94.1312324,38.5092812 94.388523,38.6878351 94.5827846,38.9192072 C94.7789276,39.1519816 94.9158043,39.4258889 94.9952963,39.746538 C95.0747883,40.06485 95.1138288,40.4210229 95.1138288,40.8085128 L95.1138288,45.5285049 L93.9266228,45.5285049 L93.9266228,40.6687547 C93.9266228,40.2251745 93.7958608,39.8736758 93.5357479,39.6151934 C93.2742239,39.3548413 92.915334,39.2253664 92.4600188,39.2253664 C92.0964252,39.2253664 91.7812794,39.2800543 91.5183443,39.3931696 C91.2516463,39.5025455 91.0310442,39.6595981 90.8532455,39.8643275 C90.6768579,40.0667197 90.5437441,40.3065054 90.4557855,40.5790103 C90.3664158,40.8529176 90.3236124,41.1501958 90.3236124,41.4750516 L90.3236124,45.5285049 L89.1345249,45.5285049 L89.1345249,35.6154932 L90.3236124,35.6154932 Z M87.4449671,38.352696 L87.4449671,39.3927022 L86.0056444,39.3927022 L86.0056444,43.8486028 C86.0056444,43.9878935 86.0178739,44.0982043 86.0409219,44.1809374 C86.0644403,44.2650727 86.1086548,44.3295764 86.1740357,44.3758509 C86.238476,44.4211905 86.3297272,44.4520401 86.4463782,44.4665301 C86.5616181,44.4800852 86.7140169,44.4870965 86.8993415,44.4870965 L87.4449671,44.4870965 L87.4449671,45.5285049 L86.537159,45.5285049 C86.2290687,45.5285049 85.9670743,45.5065362 85.7464722,45.4668057 C85.528222,45.4242706 85.3508937,45.3480814 85.2163688,45.2373032 C85.0818438,45.126525 84.9821261,44.969005 84.9158043,44.7656779 C84.8508937,44.5609486 84.8189087,44.2926504 84.8189087,43.9598484 L84.8189087,39.3927022 L83.5893697,39.3927022 L83.5893697,38.352696 L84.8189087,38.352696 L84.8189087,35.6154932 L86.0056444,35.6154932 L86.0056444,38.352696 L87.4449671,38.352696 Z M81.5907808,45.0713696 C81.0517404,45.4775563 80.3697084,45.6818182 79.5522107,45.6818182 C78.9736595,45.6818182 78.4741298,45.5888019 78.0493885,45.4041716 C77.6260583,45.218139 77.2699906,44.9591892 76.980715,44.6254524 C76.6923801,44.292183 76.4760113,43.8948772 76.3316087,43.4330677 C76.1876764,42.9684538 76.1067733,42.4645766 76.0865475,41.9181644 C76.0865475,41.3717521 76.1712135,40.873484 76.3381938,40.4210229 C76.5070555,39.9662247 76.7422389,39.5717235 77.0446849,39.2403237 C77.3476011,38.9075218 77.7055503,38.6476371 78.1204139,38.4634742 C78.5348071,38.2755719 78.9882408,38.1858276 79.4816557,38.1858276 C80.1246472,38.1858276 80.6571025,38.3167048 81.0813735,38.5803288 C81.505174,38.8434854 81.8443086,39.1795593 82.1011289,39.5876157 C82.3584196,39.9942698 82.5348071,40.4373825 82.6317027,40.9202259 C82.7300094,41.4016669 82.7699906,41.8578674 82.7511759,42.2935014 L77.3457197,42.2935014 C77.3353716,42.6080741 77.3734713,42.9062871 77.4571966,43.1895427 C77.5399812,43.4713961 77.6749765,43.7219324 77.8612418,43.9383472 C78.0484478,44.1561642 78.2850423,44.329109 78.5738476,44.4595188 C78.8617121,44.5885263 79.2031985,44.6539649 79.5931326,44.6539649 C80.0964252,44.6539649 80.5079962,44.5380451 80.8301976,44.3052707 C81.1505174,44.0753008 81.3621825,43.7238021 81.4647225,43.2512419 L82.639699,43.2512419 C82.4811853,44.0575389 82.1317027,44.6633133 81.5907808,45.0713696 L81.5907808,45.0713696 Z M81.3047977,40.4598186 C81.1984948,40.2120868 81.0531515,39.9970743 80.8715898,39.8147811 C80.690969,39.634825 80.4750706,39.4922623 80.2290687,39.3856909 C79.9825964,39.2791195 79.710254,39.2253664 79.4125118,39.2253664 C79.1048918,39.2253664 78.8273754,39.2791195 78.5813735,39.3856909 C78.3344309,39.4922623 78.1227658,39.6376295 77.9459078,39.8231946 C77.7676388,40.0073575 77.6284102,40.2219026 77.5253998,40.4682322 C77.4238006,40.7131595 77.3631232,40.9749138 77.3457197,41.252093 L81.4934149,41.252093 C81.4741298,40.9749138 81.4125118,40.7103549 81.3047977,40.4598186 L81.3047977,40.4598186 Z M71.5446849,45.5285049 L68.8621825,38.3522286 L70.1886171,38.3522286 L72.215428,44.3351855 L72.2427093,44.3351855 L74.2130762,38.3522286 L75.4567262,38.3522286 L72.8156162,45.5285049 L71.5446849,45.5285049 Z M66.1519285,45.5280375 L67.3400753,45.5280375 L67.3400753,38.3522286 L66.1519285,38.3522286 L66.1519285,45.5280375 Z M62.1284102,38.352696 L62.1284102,39.86386 L62.1561618,39.86386 C62.4449671,39.2800543 62.798683,38.8504967 63.2173095,38.573785 C63.6368768,38.2952035 64.167921,38.1666634 64.8099718,38.1858276 L64.8099718,39.433835 C64.3363123,39.433835 63.9299153,39.4983388 63.5954845,39.6278137 C63.2601129,39.757756 62.9901223,39.9475279 62.7855127,40.1985317 C62.5799624,40.4462635 62.4313264,40.7510204 62.3386642,41.1067258 C62.2441204,41.4633662 62.1984948,41.8723574 62.1984948,42.3351017 L62.1984948,45.5285049 L61.0108184,45.5285049 L61.0108184,38.352696 L62.1284102,38.352696 Z M57.6580433,45.5285049 L57.6580433,44.5572093 L57.6302916,44.5572093 C57.4355597,44.9549824 57.1269991,45.2410425 56.7088429,45.4172593 C56.2902164,45.5930087 55.8273754,45.6818182 55.3240828,45.6818182 C54.766698,45.6818182 54.2803387,45.5794535 53.8654751,45.3751916 C53.4506115,45.1737343 53.1058325,44.899827 52.8316087,44.5572093 C52.556444,44.2145915 52.3504233,43.8168183 52.2097836,43.362955 C52.0696143,42.9086242 52.0004704,42.428118 52.0004704,41.9181644 C52.0004704,41.4100805 52.0682032,40.9295742 52.2022578,40.474776 C52.3381938,40.0218475 52.5432738,39.625944 52.8165569,39.287533 C53.0921919,38.9500569 53.4365005,38.6812912 53.8513641,38.4840406 C54.2648166,38.2849203 54.7478833,38.1858276 55.2968015,38.1858276 C55.4840075,38.1858276 55.6839135,38.2031221 55.8988711,38.2400481 C56.1124177,38.2755719 56.326905,38.3405431 56.5413923,38.4279504 C56.7549389,38.5158251 56.9571966,38.6303426 57.1476952,38.7743075 C57.3396049,38.917805 57.4990593,39.0972937 57.6302916,39.3080994 L57.6580433,39.3080994 L57.6580433,35.6154932 L58.8457197,35.6154932 L58.8457197,45.5285049 L57.6580433,45.5285049 Z M53.3913452,42.9801392 C53.4793039,43.3007883 53.6138288,43.5854462 53.7944497,43.8350477 C53.9774224,44.0846491 54.2097836,44.2837694 54.4938852,44.4324085 C54.7784572,44.5805802 55.111477,44.6539649 55.4929445,44.6539649 C55.8932267,44.6539649 56.233302,44.5745037 56.514111,44.4179185 C56.7925682,44.2613333 57.0206961,44.0537995 57.1980245,43.8004587 C57.3748824,43.5466504 57.5028222,43.2577858 57.5818438,42.9333974 C57.6613358,42.6080741 57.6999059,42.2799463 57.6999059,41.9462095 C57.6999059,41.5947108 57.6580433,41.2562998 57.5747883,40.9267697 C57.491063,40.5995768 57.3579492,40.3088425 57.1754468,40.0583061 C56.994826,39.8096395 56.7601129,39.6086495 56.4698965,39.4544014 C56.182032,39.3015556 55.8325494,39.2253664 55.4238006,39.2253664 C55.023048,39.2253664 54.682032,39.3048275 54.4026341,39.462815 C54.1237065,39.6198676 53.9002822,39.8274014 53.7328316,40.0868187 C53.5658514,40.3462359 53.4430856,40.6435141 53.3697084,40.9749138 C53.2944497,41.3081832 53.2577611,41.6503336 53.2577611,42.0022997 C53.2577611,42.3351017 53.3019755,42.6618272 53.3913452,42.9801392 L53.3913452,42.9801392 Z" id="Fill-1"></path>
        </g>
    </g>
</svg>